<svg width="1049" height="366" viewBox="0 0 1049 366" fill="none" xmlns="http://www.w3.org/2000/svg">
<path d="M752.652 74.0204C770.431 71.2337 803.494 76.8594 820.597 82.6555C829.458 85.6577 840.67 98.9878 843.876 107.92C855.918 141.477 849.572 175.942 813.764 190.963C819.291 201.249 824.249 211.83 828.613 222.658C831.251 229.112 834.155 236.825 836.787 243.293C840.578 252.621 853.696 274.348 854.069 283.027C851.181 289.26 836.972 288.121 831.071 289.247C828.382 289.761 821.385 290.584 820.202 287.427C815.987 276.204 811.177 265.129 806.029 254.267C801.865 242.634 785.792 211.925 778.893 200.086C778.089 198.703 770.446 199.611 768.136 199.794C767.747 216.456 765.637 232.451 767.332 249.465C767.716 253.293 765.611 264.073 765.273 268.586C765.012 272.083 766.221 286.482 765.632 287.893C762.384 291.983 731.923 288.942 731.421 283.92C730.53 275.036 732.395 262.625 733.086 253.359C733.921 242.05 733.291 231.012 733.813 219.706C735.079 192.126 738.147 163.599 737.153 136.093C736.062 119.646 733.767 103.308 732.077 86.9159C730.797 74.5047 743.387 74.387 752.652 74.0204Z" fill="#FEFEFE"/>
<path d="M88.0253 72.3562C113.607 71.2618 150.814 75.6871 169.086 95.7183C181.81 109.667 186.208 135.932 185.315 154.322C184.259 176.065 163.402 196.387 143.882 203.994C131.606 208.859 123.22 208.603 110.674 207.722C110.023 217.263 109.917 226.574 109.067 236.168C108.756 246.143 109.693 255.757 110.601 265.62C110.975 269.676 113.273 283.584 111.222 285.948C106.905 290.926 91.6932 293.653 85.2707 294.447C80.4508 291.187 78.2826 286.719 77.2393 281.042C73.1421 258.75 74.5522 238.062 75.783 215.711C76.7849 197.52 77.5901 178.725 77.943 160.518C78.3113 141.515 75.4598 121.511 76.6364 102.391C77.0528 95.6266 77.6121 82.1261 81.0767 76.0362C82.4725 73.5822 85.4156 72.8261 88.0253 72.3562Z" fill="#FEFEFE"/>
<path d="M477.14 75.5147C484.64 75.1145 494.688 74.5642 500.842 79.0565C504.446 84.1278 497.591 119.696 497.92 127.748C498.041 130.713 497.706 138.19 497.42 141.342C502.601 136.549 508.389 130.518 513.19 125.345C517.175 121.048 520.909 115.855 525.089 111.67C532.849 103.903 541.536 97.164 549.342 89.4468C552.861 85.9695 555.125 80.8906 558.71 77.526C559.904 76.3594 562.367 76.1659 563.914 76.5032C570.701 77.9826 585.36 81.7654 582.974 91.4119C578.087 111.185 560.698 123.446 547.534 137.485C540.466 145.019 538.109 150.103 529.258 156.378C533.039 161.767 542.023 169.231 545.198 174.875C553.599 189.791 562.465 209.889 567.152 226.23C569.743 235.281 571.024 243.708 573.887 253.117C576.489 261.669 583.214 275.851 584.505 283.06C583.87 284.83 583.701 284.537 582 285.791C575.234 287.837 556.482 289.693 551.432 283.931C541.869 273.02 539.415 256.076 534.944 242.627C531.507 232.295 527.691 222.379 523.619 212.29C519.224 201.164 515.572 192.351 507.543 183.297C497.936 195.511 496.788 241.998 496.41 258.696C496.287 264.091 498.716 280.77 497.132 284.559C494.821 286.893 489.949 287.65 486.772 287.614C479.25 287.529 465.59 288.312 464.153 278.451C459.472 246.322 466.29 212.926 467.846 180.688C467.869 177.796 467.586 174.73 467.294 171.857C464.687 146.221 462.798 120.923 466.089 95.2424C466.79 89.776 466.945 83.5202 469.684 78.5697C470.934 76.3107 474.796 75.9862 477.14 75.5147Z" fill="#FEFEFE"/>
<path d="M899.717 46.2118C912.722 46.085 918.244 60.4472 922.495 70.6451C948.162 70.8503 969.383 79.0753 972.543 108.42C972.999 112.65 974.351 118.615 969.275 120.285C961.858 122.725 951.512 125.558 943.741 123.722C936.678 121.539 939.931 105.437 932.237 103.996C888.71 95.8407 907.672 147.744 922.367 164.244C938.389 182.237 960.142 189.914 970.007 212.67C976.533 227.726 977.583 244.521 972.056 259.533C967.825 271.143 959.159 280.599 947.957 285.824C933.769 292.271 912.061 293.402 897.51 287.936C896.49 287.651 895.486 287.331 894.493 286.976C873.057 279.261 862.864 255.083 865.625 232.536C866.337 226.734 888.152 228.991 892.721 230.859C899.292 239.818 897.085 255.119 908.65 258.918C927.31 264.996 943.962 255.934 941.38 234.778C939.08 215.943 917.901 203.585 904.158 192.102C881.99 173.583 873.948 147.427 871.331 119.392C856.297 124.432 842.591 100.251 869.722 89.6484C862.664 85.0189 856.718 78.0828 861.881 69.3362C863.673 66.2618 866.624 64.0315 870.071 63.1418C876.714 61.4398 882.773 64.7123 888.234 67.9464C884.582 56.5861 886.641 48.4107 899.717 46.2118Z" fill="#FEFEFE"/>
<path d="M286.869 75.4808C290.866 75.252 297.465 74.2574 300.881 76.8117C304.293 79.3624 312.314 95.0733 307.926 98.2818C292.601 109.489 265.175 107.899 247.174 107.95C244.64 116.527 243.888 135.761 244.954 144.684C245.612 150.195 247.372 158.114 248.127 164.183C267.265 165.616 284.572 164.262 302.036 165.455C303.102 166.129 304.254 166.83 305.142 167.733C306.561 169.175 307.129 170.95 307.061 172.952C306.862 178.788 304.97 188.486 300.431 192.522C294.395 197.888 255.553 195.697 246.568 195.079C244.814 207.704 243.803 221.824 242.675 234.629C242.084 241.33 243.008 249.609 242.245 256.734C258.489 258.618 275.542 259.023 290.82 261C294.672 261.146 298.938 261.712 302.725 262.45C305.163 262.926 309.046 263.858 310.443 266.084C312.472 269.321 311.091 277.311 310.194 280.797C309.56 283.254 308.405 286.467 306.061 287.747C298.274 292.002 230.891 287.865 220.543 284.47C217.473 283.463 215.502 281.959 214.046 279.028C211.394 273.693 211.397 266.642 210.872 260.772C208.627 235.698 210.073 215.299 211.924 190.608C212.52 182.654 213.86 174.453 213.926 166.504C214.011 156.268 211.546 145.754 210.801 135.52C210.081 125.633 212.196 89.3693 215.058 80.8075C225.31 71.5019 250.411 77.9496 264.078 77.3947C271.781 77.0825 279.124 76.9996 286.869 75.4808Z" fill="#FEFEFE"/>
<path d="M686.091 75.477L689.595 75.2794C693.646 75.0639 696.34 74.2413 699.834 76.8581C703.491 79.5962 711.543 94.873 706.912 98.2863C691.613 109.571 664.163 107.889 646.139 107.95C643.998 115.787 642.81 135.733 643.926 144.064C644.756 150.246 646.533 157.551 647.194 164.126C666.653 165.743 683.371 164.219 701.094 165.452C702.446 166.273 703.332 167.07 704.505 167.968C708.505 171.205 703.173 190.809 699.665 192.399C687.244 198.023 657.382 195.968 645.545 194.985C644.31 214.302 639.967 237.424 641.688 256.61C651.548 258.532 661.531 259.759 671.565 260.28C677.809 260.599 683.556 260.187 689.856 260.965C694.266 261.443 698.937 261.701 703.25 262.753C705.401 263.278 708.408 264.171 709.571 266.206C711.594 269.733 710.375 276.678 709.417 280.408C708.792 282.836 707.563 286.397 705.237 287.666C696.837 292.246 629.922 287.77 619.724 284.496C616.81 283.561 614.566 282.153 613.148 279.342C610.31 273.723 610.397 266.142 609.921 259.956C609.178 250.362 608.323 240.744 608.374 231.115C608.44 219.71 609.608 208.073 610.489 196.69C611.268 186.627 612.845 176.388 612.968 166.302C613.076 157.119 610.889 147.719 610.136 138.548C609.193 127.006 610.751 90.6422 614.013 80.9046C624.56 71.405 649.222 77.9592 663.221 77.4043C670.966 77.0972 678.346 76.939 686.091 75.477Z" fill="#FEFEFE"/>
<path d="M381.184 71.2878C385.88 71.1132 390.479 70.9822 395.168 71.0764C417.69 71.5284 438.502 90.2051 441.999 112.346C443.04 118.932 439.95 121.555 434.405 124.139C429.364 126.488 425.722 127.657 420.228 128.14C420.115 128.001 420.003 127.862 419.89 127.723L419.704 127.474C414.579 120.7 413.203 109.106 403.985 104.478C397.296 101.531 385.111 102.219 378.269 103.931C371.355 105.661 367.843 118.877 367.13 124.876C364.529 146.76 364.587 168.872 364.057 190.863C363.731 204.37 361.791 218.061 362.228 231.631C362.418 243.678 366.611 254.138 378.15 258.797C398.163 266.877 406.972 259.534 412.852 240.276C413.572 237.914 415.009 235.59 417.364 234.63C424.512 235.601 438.592 242.34 439.919 250.321C441.211 258.087 434.646 269.155 430.697 275.799C424.861 285.616 416.028 288.81 405.332 290.944C372.323 296.692 334.813 280.368 328.345 244.64C325.201 225.722 328.679 208.56 329.761 189.321C331.489 158.61 327.186 119.295 342.981 91.7014C350.507 78.5515 367.427 73.9506 381.184 71.2878Z" fill="#FEFEFE"/>
</svg>
